<svg xmlns="http://www.w3.org/2000/svg" data-name="Layer 1" viewBox="0 0 512 512"><g data-name="&lt;Group&gt;"><g data-name=" Group 2"><g data-name="&lt;Group&gt;"><g data-name="&lt;Group&gt;"><path fill="#ed664c" d="M266.14,417.5V179.34a26.787,26.787,0,0,1,26.7-26.71H470.27a26.8,26.8,0,0,1,26.7,26.71V427.39A19.674,19.674,0,0,1,477.2,447.5H292.84a26.785,26.785,0,0,1-26.7-26.7Zm204-18.31V178.46H292.98V399.19Z" data-name="&lt;Group&gt;"/><rect width="177.16" height="220.73" x="292.98" y="178.46" fill="#fdc75b" data-name="&lt;Group&gt;"/><path fill="#ed664c" d="M447.39,103.38v49.25H409.02V105.62H73.93v243.1H35.56V103.38A38.884,38.884,0,0,1,74.44,64.5H408.51A38.884,38.884,0,0,1,447.39,103.38Z" data-name="&lt;Group&gt;"/><path fill="#fdc75b" d="M409.02,105.62v47.01H292.84a26.787,26.787,0,0,0-26.7,26.71V369.81H220.92a38.9,38.9,0,0,1-28.59-12.52l-7.89-8.57H73.93V105.62Z" data-name="&lt;Group&gt;"/><path fill="#ed664c" d="M266.14,369.81V417.5H53.9a38.884,38.884,0,0,1-38.88-38.88v-29.9H184.44l7.89,8.57a38.9,38.9,0,0,0,28.59,12.52Z" data-name="&lt;Group&gt;"/></g><g data-name="&lt;Group&gt;"><path d="M505,179.313A34.517,34.517,0,0,0,470.27,145H455V103.38A46.176,46.176,0,0,0,408.51,57H74.44A46.133,46.133,0,0,0,28,103.38V341H15.02A7.783,7.783,0,0,0,7,348.72v29.9C7,404.47,28.05,426,53.9,426H258.478c2.338,16,16.858,29,34.362,30H477.2A28.12,28.12,0,0,0,505,427.277ZM44,103.38A30.118,30.118,0,0,1,74.44,73H408.51A30.16,30.16,0,0,1,439,103.38V145H417V105.62A7.668,7.668,0,0,0,409.02,98H73.93A7.625,7.625,0,0,0,66,105.62V341H44ZM23,378.62V357H180.932l5.517,5.949A46.984,46.984,0,0,0,220.92,378H258v32H53.9C36.873,410,23,395.647,23,378.62ZM258,179.34V362H220.92a31.061,31.061,0,0,1-22.7-10.033l-7.89-8.478A7.914,7.914,0,0,0,184.44,341H82V114H401v31H292.812C273.746,145,258,160.256,258,179.34Zm227.747,256.8A12.054,12.054,0,0,1,477.2,440H292.867c-10.3-1-18.867-8.934-18.867-19.2V179.362A18.592,18.592,0,0,1,292.84,161h177.4A18.5,18.5,0,0,1,489,179.34V427.39c0,.082-.014.289-.011.371A11.576,11.576,0,0,1,485.747,436.136Z" data-name="&lt;Compound Path&gt;"/><path d="M478,178a8,8,0,0,0-8-8H293a8,8,0,0,0-8,8V399a8,8,0,0,0,8,8H470a8,8,0,0,0,8-8ZM462,391H301V186H462Z" data-name="&lt;Compound Path&gt;"/><path d="M389.93,415H373.18a8,8,0,0,0,0,16h16.75a8,8,0,1,0,0-16Z" data-name="&lt;Path&gt;"/></g></g></g></g></svg>